<svg width="319.8" height="60.391806542238704" viewBox="0 0 370.3243243243243 69.93294231544671" class="css-1j8o68f"><defs id="SvgjsDefs23914"></defs><g id="SvgjsG23915" featurekey="symbolFeature-0" transform="matrix(0.16843193704092677,0,0,0.16843193704092677,-5.28079233731321,-8.152106009787595)" fill="#07689f"><g xmlns="http://www.w3.org/2000/svg"><path d="M476.603,178.519c-3.712-1.987-8.381-0.6-10.406,3.131l-14.152,26.344C431.696,115.6,349.916,48.4,253.094,48.4   c-104.583,0-191.729,78.315-202.735,182.167c-0.45,4.219,2.606,7.987,6.825,8.437c4.181,0.581,7.987-2.606,8.437-6.825   c10.181-96.014,90.783-168.405,187.473-168.405c89.534,0,165.157,62.121,183.976,147.544l-22.996-20.256   c-3.169-2.812-8.025-2.512-10.837,0.675c-2.812,3.187-2.512,8.043,0.675,10.837l39.204,34.555c0.019,0.016,0.049,0.009,0.068,0.026   c1.352,1.179,3.104,1.889,4.994,1.898c0.007,0,0.012,0.007,0.019,0.007c0.005,0,0.008-0.001,0.013-0.001   c0.002,0,0.004,0.001,0.006,0.001c0.263,0,0.544-0.019,0.806-0.056c0.04-0.005,0.07-0.03,0.11-0.035   c0.138-0.019,0.277-0.016,0.415-0.04c0.3-0.054,0.533-0.26,0.821-0.348c0.707-0.213,1.378-0.45,1.978-0.84   c0.32-0.207,0.568-0.464,0.854-0.716c0.538-0.473,1-0.978,1.385-1.581c0.105-0.164,0.287-0.26,0.38-0.434l24.768-46.085   C481.74,185.194,480.334,180.525,476.603,178.519z"></path><path d="M454.835,272.996c-4.106-0.544-8.006,2.606-8.437,6.825c-10.181,96.014-90.783,168.405-187.492,168.405   c-89.537,0-165.162-62.124-183.963-147.551l23.002,20.263c3.187,2.831,8.025,2.512,10.837-0.675   c2.812-3.187,2.494-8.043-0.675-10.837l-39.223-34.555c-0.093-0.081-0.218-0.094-0.314-0.17c-1.58-1.289-3.599-1.982-5.573-1.705   c-0.102,0.011-0.18,0.074-0.28,0.088c-0.089,0.012-0.175-0.028-0.264-0.013c-0.319,0.057-0.568,0.275-0.874,0.371   c-0.67,0.21-1.314,0.43-1.887,0.8c-0.355,0.227-0.632,0.51-0.944,0.792c-0.493,0.445-0.923,0.912-1.285,1.467   c-0.121,0.184-0.323,0.293-0.428,0.487l-24.768,46.085c-2.006,3.731-0.6,8.4,3.131,10.406c1.162,0.619,2.4,0.919,3.637,0.919   c2.737,0,5.381-1.481,6.768-4.05l14.159-26.371C80.285,396.387,162.056,463.6,258.906,463.6   c104.583,0,191.748-78.315,202.753-182.167C462.109,277.215,459.053,273.446,454.835,272.996z"></path></g></g><g id="SvgjsG23916" featurekey="nameFeature-0" transform="matrix(2.1378143803535132,0,0,2.1378143803535132,93.09257113790088,-23.413437413598967)" fill="#07689f"><path d="M12.88 26.119999999999997 c4.44 2.8 8.32 4.6 8.32 8.16 c0 4.08 -4.44 6.44 -9.96 6.44 c-4.52 0 -8.28 -1.6 -9.88 -3 l2.36 -6.28 l0.44 0.08 c-1.4 2.48 3.84 7.56 7.88 7.56 c2.76 0 4.4 -1.4 4.4 -3.48 c0 -2.76 -2.16 -4.96 -6.44 -7.72 c-3.4 -2.24 -7.32 -3.84 -7.32 -7.6 c0 -3.72 3.08 -6.2 8.72 -6.2 c4.4 0 8.48 1.6 9.72 3 l-2.8 5.28 l-0.44 -0.16 c1.52 -1.88 -3 -6.48 -6.48 -6.48 c-3.24 0 -4.12 1.72 -4.12 3.36 c0 2.44 1.4 4.28 5.6 7.04 z M50.480000000000004 40 c-1.6 0.36 -2.4 -0.32 -4.08 0 c-1.48 -4.96 -2.76 -9.44 -4.6 -14.28 c-2.08 4.8 -3.8 9.6 -5.2 14.28 c-1.56 0.36 -2.48 -0.48 -4.04 0 c-2.4 -8.48 -4.56 -16.12 -8.6 -25.52 c1.92 -0.36 3.08 0.36 5.44 0 c1.4 6.52 3.84 15.16 6.12 21.68 c2 -6 3.48 -11.44 4.32 -16.48 c-0.48 -1.64 -0.92 -2.84 -2.04 -5.2 c1.92 -0.36 3.28 0.36 5.48 0 c1.36 6.76 3.72 15.36 6.12 21.68 c2.84 -7.68 4.76 -14.76 6.56 -21.68 c1.24 -0.36 2.36 0.2 3.84 0 c-3 7.48 -6.32 17.04 -9.32 25.52 z M60.28 40 c-1.24 0.36 -2.04 -0.44 -3.84 0 c3.32 -7.24 7.36 -16.92 10.6 -25.52 c1.6 -0.36 2.28 0.16 4.08 0 c2.84 8.64 5.64 16 9.88 25.52 c-1.96 0.36 -3.32 -0.72 -5.48 0 l-1.92 -5.84 c-3.8 -0.12 -7.64 -0.12 -11.4 0 c-0.68 1.96 -1.36 3.92 -1.92 5.84 z M68.12 18.36 c-2.12 4.72 -3.92 9.28 -5.28 13.84 c3.48 0.28 6.44 0.32 10.08 0.04 c-1.36 -5 -3 -9.8 -4.8 -13.88 z M93.83999999999999 14.079999999999998 c3.04 -0.08 11 0.32 11 7.84 c0 6.64 -5.76 10 -11.76 10 c-0.96 0 -2.16 -0.04 -3.4 -0.16 c0 2.88 0.04 5.68 0.12 8.24 c-1.96 -0.44 -3.16 0.36 -4.72 0 c0.52 -8.68 0.64 -16.36 0 -25.28 c3.36 -0.04 6.2 -0.64 8.76 -0.64 z M92.75999999999999 30.240000000000002 c3.6 0 6.96 -1.96 6.96 -7.68 c0 -5.24 -3.08 -6.8 -6.76 -6.8 c-0.76 0 -1.92 0 -3.16 0.12 c-0.12 4.76 -0.12 9.6 -0.12 14.24 c1.2 0.08 2.28 0.12 3.08 0.12 z M109.4 21.24 c1.56 0.16 2.68 -0.36 4.68 0 c-0.12 6.24 -0.12 12.48 0 18.76 c-2.24 0.2 -3.08 -0.24 -4.68 0 c0.12 -6.28 0.12 -12.52 0 -18.76 z M109.72 14.079999999999998 c3 -1 3.28 0.72 4.08 0 l0 3.32 c-2.68 0.68 -3.4 -0.56 -4.08 0 l0 -3.32 z M120.4 22.96 c-0.6 0 -1.6 0.08 -2.28 0.08 c-0.16 -0.72 0.2 -1.16 0 -1.68 c0.8 0 1.56 0.08 2.28 0.08 l-0.04 -3.84 c1.84 0.28 1.68 -1.44 4.52 -1.44 c-0.24 2 -0.2 3.28 -0.24 5.28 l4.76 -0.08 c-0.08 0.48 0.08 1 0 1.68 l-4.76 -0.08 c-0.04 4.84 0.08 9.4 0.16 11.8 c0.08 2.52 0.44 3.96 1.6 3.96 c0.8 0 1.52 -0.84 1.52 -1.8 c0 -0.28 0 -0.56 -0.32 -0.88 c0.72 0.28 1.4 -0.2 2.08 0.32 c0 2.84 -1.64 4.2 -4.4 4.2 c-3.36 0 -5.12 -1.76 -5.12 -5.8 c0 -3.56 0.44 -7.24 0.24 -11.8 z"></path></g></svg>